<?xml version="1.0" encoding="utf-8"?>
<!-- Generator: Adobe Illustrator 24.2.0, SVG Export Plug-In . SVG Version: 6.00 Build 0)  -->
<svg version="1.1" xmlns="http://www.w3.org/2000/svg" xmlns:xlink="http://www.w3.org/1999/xlink" x="0px" y="0px" width="153.9px"
	 height="65.1px" viewBox="0 0 153.9 65.1" style="enable-background:new 0 0 153.9 65.1;" xml:space="preserve">
<g id="Layer_2">
</g>
<g id="Layer_3">
	<g>
		<path d="M12.9,19.6L11,24.1H7.5l8.8-19.8h3.4l8.7,19.8h-3.6l-1.9-4.5H12.9z M17.9,7.8l-3.7,8.8h7.5L17.9,7.8z"/>
		<path d="M48.8,24.1l0-14.8L42.5,22h-2.2L34.1,9.3v14.8H31V4.2h4l6.5,13.2L48,4.2h3.9v19.8H48.8z"/>
		<path d="M60,19.6l-1.9,4.5h-3.5l8.8-19.8h3.4l8.7,19.8h-3.6L70,19.6H60z M64.9,7.8l-3.7,8.8h7.5L64.9,7.8z"/>
		<path d="M81,21.1h12.2v3H76.5v-2.4L88.6,7.2H76.9v-3h16.2v2.4L81,21.1z"/>
		<path d="M96.9,24.1V4.2h3.3v19.8H96.9z"/>
		<path d="M119.4,24.1L108.8,9.8v14.2h-3.3V4.2h3.3l10.6,14.2V4.2h3.3v19.8H119.4z"/>
		<path d="M144.4,14.3v7.3c-2,1.5-5,2.6-7.7,2.6c-5.9,0-10.4-4.4-10.4-10.1s4.6-10,10.6-10c2.8,0,5.7,1.1,7.6,2.8l-1.9,2.5
			c-1.5-1.4-3.7-2.3-5.7-2.3c-4,0-7.2,3.1-7.2,7c0,4,3.2,7.1,7.2,7.1c1.5,0,3.1-0.5,4.6-1.4v-5.5H144.4z"/>
		<path d="M18.9,41.2l-2,2.4c-1.4-1.6-3.5-2.5-5.5-2.5c-4,0-7.1,3.1-7.1,7s3.1,7,7.1,7c2,0,4-0.9,5.5-2.4l2,2.2
			c-2,2-4.9,3.3-7.7,3.3C5.5,58.2,1,53.8,1,48.1c0-5.6,4.6-10,10.4-10C14.2,38.1,17,39.3,18.9,41.2z"/>
		<path d="M34.3,55v3H22.3V38.2h3.3V55H34.3z"/>
		<path d="M56.8,48.1c0,5.7-4.6,10.1-10.5,10.1s-10.5-4.4-10.5-10.1c0-5.7,4.6-10,10.5-10S56.8,42.5,56.8,48.1z M39.2,48.1
			c0,3.9,3.3,7.1,7.1,7.1s7.1-3.1,7.1-7.1s-3.2-7-7.1-7C42.4,41.1,39.2,44.2,39.2,48.1z"/>
		<path d="M77.2,49.8c0,5.2-3.3,8.4-8.6,8.4S60,55,60,49.8V38.2h3.3v11.6c0,3.3,2.1,5.4,5.3,5.4c3.2,0,5.2-2,5.2-5.4V38.2h3.3V49.8z
			"/>
		<path d="M90.2,38.2c5.9,0,10.3,4.2,10.3,9.9c0,5.7-4.3,9.9-10.3,9.9h-8V38.2H90.2z M85.4,55h4.9c3.9,0,6.8-2.9,6.8-6.9
			c0-4-3-6.9-6.9-6.9h-4.7V55z"/>
		<path d="M117.4,40.1l-1.4,2.9c-2.2-1.3-4.3-1.8-5.8-1.8c-2,0-3.2,0.7-3.2,2.1c0,4.3,10.7,2,10.7,9.1c0,3.5-3.1,5.7-7.5,5.7
			c-3.1,0-6.1-1.3-8.1-3.1l1.4-2.9c2,1.9,4.6,2.9,6.7,2.9c2.3,0,3.7-0.9,3.7-2.4c0-4.4-10.7-2-10.7-9c0-3.4,2.9-5.5,7.2-5.5
			C113.1,38.1,115.6,38.9,117.4,40.1z"/>
		<path d="M124.9,41.2v5.4h9.7v3h-9.7V55h11.2v3h-14.5V38.2h14.2v3H124.9z"/>
		<path d="M147.4,41.2V58h-3.3V41.2h-6.3v-3h15.9v3H147.4z"/>
	</g>
</g>
</svg>
